<svg width="555" height="100" viewBox="0 0 555 100" fill="none" xmlns="http://www.w3.org/2000/svg">
<path fill-rule="evenodd" clip-rule="evenodd" d="M7.02944 7.02944C0 14.0589 0 25.3726 0 48V52C0 74.6274 0 85.9411 7.02944 92.9706C14.0589 100 25.3726 100 48 100H52C74.6274 100 85.9411 100 92.9706 92.9706C100 85.9411 100 74.6274 100 52V48C100 25.3726 100 14.0589 92.9706 7.02944C85.9411 0 74.6274 0 52 0H48C25.3726 0 14.0589 0 7.02944 7.02944ZM16.8752 30.4169C17.4168 56.4169 30.4167 72.0418 53.2084 72.0418H54.5003V57.1668C62.8753 58.0001 69.2082 64.1252 71.7498 72.0418H83.5835C80.3335 60.2085 71.7914 53.6668 66.4581 51.1668C71.7914 48.0835 79.2915 40.5835 81.0831 30.4169H70.3328C67.9995 38.6669 61.0836 46.1668 54.5003 46.8751V30.4169H43.7499V59.2501C37.0833 57.5835 28.6668 49.5002 28.2918 30.4169H16.8752Z" fill="white"/>
<path d="M183.178 51.549C183.178 52.4307 183.119 53.5181 183.002 54.8113H146.147C146.617 58.3969 148.087 61.2771 150.555 63.4519C153.024 65.568 156.169 66.6261 159.989 66.6261C162.576 66.6261 164.898 66.1264 166.955 65.1272C169.071 64.1279 170.687 62.776 171.804 61.0714L181.327 62.6584C179.681 66.8906 176.83 70.1529 172.774 72.4453C168.777 74.7377 164.31 75.8839 159.372 75.8839C154.787 75.8839 150.673 74.8847 147.029 72.8861C143.443 70.8288 140.621 68.0074 138.564 64.4218C136.566 60.7775 135.566 56.6629 135.566 52.078C135.566 47.4932 136.566 43.408 138.564 39.8224C140.621 36.178 143.443 33.3566 147.029 31.3581C150.673 29.3008 154.787 28.2721 159.372 28.2721C163.957 28.2721 168.042 29.3008 171.628 31.3581C175.272 33.3566 178.094 36.1486 180.092 39.7342C182.15 43.261 183.178 47.1993 183.178 51.549ZM159.372 37.0891C156.316 37.0891 153.641 37.9708 151.349 39.7342C149.115 41.4976 147.587 43.8782 146.764 46.876H172.157C171.275 43.937 169.688 41.5858 167.396 39.8224C165.162 38.0002 162.488 37.0891 159.372 37.0891Z" fill="white"/>
<path d="M210.829 75.8839C206.538 75.8839 202.688 74.8847 199.279 72.8861C195.87 70.8288 193.195 68.0074 191.255 64.4218C189.374 60.7775 188.434 56.6629 188.434 52.078C188.434 47.4932 189.374 43.408 191.255 39.8224C193.195 36.178 195.87 33.3566 199.279 31.3581C202.688 29.3008 206.538 28.2721 210.829 28.2721C214.532 28.2721 217.824 29.0363 220.704 30.5645C223.584 32.034 225.936 33.8856 227.758 36.1192V12.8424H237.897V75.0022H230.315L228.199 67.5959C226.318 69.8884 223.908 71.8575 220.969 73.5033C218.03 75.0904 214.65 75.8839 210.829 75.8839ZM213.298 66.8024C217.589 66.8024 221.057 65.4505 223.702 62.7466C226.406 59.9839 227.758 56.4277 227.758 52.078C227.758 47.7283 226.406 44.2015 223.702 41.4976C221.057 38.735 217.589 37.3536 213.298 37.3536C209.066 37.3536 205.627 38.735 202.982 41.4976C200.337 44.2015 199.014 47.7283 199.014 52.078C199.014 56.4277 200.337 59.9839 202.982 62.7466C205.627 65.4505 209.066 66.8024 213.298 66.8024Z" fill="white"/>
<path d="M266.554 75.8839C263.321 75.8839 260.382 75.061 257.737 73.4152C255.151 71.7693 253.093 69.5063 251.565 66.6261C250.096 63.7458 249.361 60.4836 249.361 56.8392V29.1538H259.5V55.693C259.5 58.9847 260.411 61.6592 262.234 63.7165C264.115 65.7738 266.495 66.8024 269.375 66.8024C272.314 66.8024 274.754 65.7738 276.694 63.7165C278.633 61.6004 279.603 58.9259 279.603 55.693V29.1538H289.743V75.0022H282.16L280.132 68.125C278.663 70.5349 276.723 72.4453 274.313 73.856C271.903 75.2079 269.317 75.8839 266.554 75.8839Z" fill="white"/>
<path d="M322.454 75.8839C317.87 75.8839 313.755 74.8847 310.111 72.8861C306.466 70.8288 303.615 68.0074 301.558 64.4218C299.56 60.7775 298.56 56.6629 298.56 52.078C298.56 47.4932 299.56 43.408 301.558 39.8224C303.615 36.178 306.466 33.3566 310.111 31.3581C313.755 29.3008 317.87 28.2721 322.454 28.2721C327.51 28.2721 331.977 29.5359 335.856 32.0634C339.795 34.5322 342.587 38.059 344.232 42.6438L334.71 44.2309C333.711 42.2324 332.153 40.6159 330.037 39.3815C327.98 38.1472 325.658 37.53 323.072 37.53C318.957 37.53 315.607 38.8819 313.02 41.5858C310.434 44.2897 309.141 47.7871 309.141 52.078C309.141 56.369 310.434 59.8664 313.02 62.5702C315.607 65.2741 318.957 66.6261 323.072 66.6261C325.775 66.6261 328.185 66.0089 330.302 64.7745C332.418 63.4813 334.005 61.8061 335.063 59.7488L344.585 61.3359C342.939 65.9795 340.088 69.5651 336.033 72.0926C331.977 74.6201 327.451 75.8839 322.454 75.8839Z" fill="white"/>
<path d="M370.354 28.2721C376.232 28.2721 380.846 30.1237 384.197 33.8268C387.606 37.4712 389.311 42.6144 389.311 49.2566V75.0022H381.816L379.7 67.7723C378.407 69.9471 376.497 71.8575 373.969 73.5033C371.442 75.0904 368.444 75.8839 364.976 75.8839C361.919 75.8839 359.157 75.2667 356.688 74.0323C354.278 72.798 352.397 71.064 351.045 68.8303C349.693 66.5967 349.017 64.0691 349.017 61.2477C349.017 56.898 350.722 53.43 354.131 50.8436C357.599 48.1985 362.625 46.876 369.208 46.876H379.083C378.848 43.8194 377.907 41.4094 376.262 39.646C374.674 37.8239 372.529 36.9128 369.825 36.9128C367.65 36.9128 365.769 37.4418 364.182 38.4998C362.595 39.5579 361.42 40.851 360.655 42.3793L351.309 40.7923C352.426 36.9128 354.719 33.8562 358.187 31.6226C361.713 29.3889 365.769 28.2721 370.354 28.2721ZM367.356 67.3314C370.883 67.3314 373.734 66.1852 375.909 63.8928C378.084 61.6004 379.171 58.5732 379.171 54.8113H369.561C362.683 54.8113 359.245 56.8098 359.245 60.8068C359.245 62.8054 359.979 64.3924 361.449 65.568C362.918 66.7436 364.888 67.3314 367.356 67.3314Z" fill="white"/>
<path d="M427.643 66.1852L426.762 75.0022H418.209C413.213 75.0022 409.422 73.8266 406.835 71.4754C404.249 69.0654 402.956 65.5974 402.956 61.0714V37.9708H395.461V29.1538H402.956L405.513 15.9283H413.095V29.1538H426.762V37.9708H413.095V61.0714C413.095 64.4806 414.8 66.1852 418.209 66.1852H427.643Z" fill="white"/>
<path d="M446.193 75.0022H436.054V29.1538H446.193V75.0022ZM441.168 22.6292C439.287 22.6292 437.759 22.0708 436.583 20.954C435.407 19.7784 434.82 18.2795 434.82 16.4573C434.82 14.6352 435.407 13.1363 436.583 11.9607C437.817 10.7851 439.346 10.1973 441.168 10.1973C442.99 10.1973 444.489 10.7851 445.664 11.9607C446.84 13.1363 447.428 14.6352 447.428 16.4573C447.428 18.2795 446.84 19.7784 445.664 20.954C444.489 22.0708 442.99 22.6292 441.168 22.6292Z" fill="white"/>
<path d="M479.952 75.8839C475.25 75.8839 471.018 74.8847 467.256 72.8861C463.553 70.8288 460.643 68.0074 458.527 64.4218C456.47 60.7775 455.441 56.6629 455.441 52.078C455.441 47.4932 456.47 43.408 458.527 39.8224C460.643 36.178 463.553 33.3566 467.256 31.3581C471.018 29.3008 475.25 28.2721 479.952 28.2721C484.655 28.2721 488.857 29.3008 492.561 31.3581C496.322 33.3566 499.232 36.178 501.289 39.8224C503.405 43.408 504.463 47.4932 504.463 52.078C504.463 56.6629 503.405 60.7775 501.289 64.4218C499.232 68.0074 496.322 70.8288 492.561 72.8861C488.857 74.8847 484.655 75.8839 479.952 75.8839ZM479.952 66.6261C484.067 66.6261 487.417 65.3035 490.004 62.6584C492.59 59.9545 493.883 56.4277 493.883 52.078C493.883 47.7283 492.59 44.2309 490.004 41.5858C487.417 38.8819 484.067 37.53 479.952 37.53C475.838 37.53 472.487 38.8819 469.901 41.5858C467.314 44.2309 466.021 47.7283 466.021 52.078C466.021 56.4277 467.314 59.9545 469.901 62.6584C472.487 65.3035 475.838 66.6261 479.952 66.6261Z" fill="white"/>
<path d="M513.278 75.0022V29.1538H520.861L522.889 36.0311C524.358 33.6211 526.298 31.7401 528.708 30.3882C531.177 28.9775 533.822 28.2721 536.643 28.2721C539.935 28.2721 542.904 29.095 545.549 30.7409C548.194 32.3867 550.28 34.6497 551.809 37.53C553.337 40.4102 554.101 43.6725 554.101 47.3168V75.0022H543.962V48.463C543.962 45.1714 543.021 42.4969 541.14 40.4396C539.259 38.3823 536.849 37.3536 533.91 37.3536C530.854 37.3536 528.326 38.4117 526.328 40.5277C524.388 42.585 523.418 45.2301 523.418 48.463V75.0022H513.278Z" fill="white"/>
</svg>
